<?xml version="1.0" standalone="no"?>
<!DOCTYPE svg PUBLIC "-//W3C//DTD SVG 20010904//EN"
 "http://www.w3.org/TR/2001/REC-SVG-20010904/DTD/svg10.dtd">
<svg version="1.0" xmlns="http://www.w3.org/2000/svg"
 width="300.000000pt" height="300.000000pt" viewBox="0 0 300.000000 300.000000"
 preserveAspectRatio="xMidYMid meet">
<metadata>
Created by potrace 1.11, written by Peter Selinger 2001-2013
</metadata>
<g transform="translate(0.000000,300.000000) scale(0.100000,-0.100000)"
fill="#000000" stroke="none">
<path d="M1275 2579 c-208 -30 -431 -144 -568 -289 -113 -120 -167 -254 -167
-420 0 -148 40 -252 132 -342 l58 -58 -24 -83 c-86 -296 -35 -596 129 -760
102 -102 224 -142 405 -134 233 10 433 108 656 319 218 207 346 435 404 718
11 54 20 100 20 103 0 2 33 30 74 61 134 103 306 302 306 355 0 42 -38 24 -76
-36 -42 -66 -127 -151 -223 -223 l-66 -50 -3 48 c-5 103 -24 213 -47 282 -92
269 -316 452 -620 505 -94 16 -291 18 -390 4z m400 -64 c228 -59 394 -229 466
-476 16 -56 22 -113 26 -231 l6 -156 -99 -47 c-276 -132 -595 -195 -882 -174
-102 8 -272 49 -272 67 1 18 101 191 159 272 221 312 451 476 621 443 53 -11
70 -7 70 13 0 19 -76 53 -143 64 -240 38 -590 -238 -808 -637 -19 -35 -37 -63
-40 -63 -4 0 -19 18 -33 41 -85 128 -86 334 -2 504 97 196 334 355 591 395 82
12 267 5 340 -15z m470 -997 c-31 -146 -117 -340 -216 -489 -83 -124 -268
-310 -367 -369 -189 -112 -383 -131 -547 -54 -141 66 -209 202 -207 419 0 156
50 375 83 367 8 -2 47 -12 88 -23 298 -77 746 -19 1067 136 49 24 93 44 97 44
5 1 5 -14 2 -31z"/>
</g>
</svg>
